# xmcd
#
# Track frame offsets: 
#        150
#        12200
#        25225
#        37437
#        45492
#        54981
#        67423
#        80049
#        92062
#        105183
#        116911
#        130089
#        141400
#        154251
#        167982
#        180553
#        190689
#        203185
#
# Disc length: 2871 seconds
#
# Revision: 0
# Processed by: cddbd v1.5.2PL0 Copyright (c) Steve Scherf et al.
# Submitted via: ExactAudioCopy v1.0b1
#
DISCID=020b3512
DTITLE=Big Mama Thornton - Hound Dog: The Peacock Recordings
DYEAR=1992
DGENRE=Blues
TTITLE0=Hound Dog
TTITLE1=My Man Called Me
TTITLE2=I Smell a Rat
TTITLE3=They Call Me Big Mama
TTITLE4=You Don't Move Me No More
TTITLE5=Let Your Tears Fall Baby
TTITLE6=Rock-A-Bye Baby
TTITLE7=Yes, Baby
TTITLE8=How Come
TTITLE9=Nightmare
TTITLE10=Stop A-Hoppin' on Me
TTITLE11=Just Like a Dog (Barking up the Wrong Tree)
TTITLE12=Walking Blues
TTITLE13=The Big Chance
TTITLE14=Hard Times
TTITLE15=Laugh, Laugh, Laugh
TTITLE16=The Fish
TTITLE17=I've Searched The Whole World Over
EXTD=
EXTT0=
EXTT1=
EXTT2=
EXTT3=
EXTT4=
EXTT5=
EXTT6=
EXTT7=
EXTT8=
EXTT9=
EXTT10=
EXTT11=
EXTT12=
EXTT13=
EXTT14=
EXTT15=
EXTT16=
EXTT17=
PLAYORDER=
